<svg width="358" height="158" viewBox="0 0 358 158" fill="none" xmlns="http://www.w3.org/2000/svg">
<g clip-path="url(#clip0_55_1625)">
<rect width="358" height="158" rx="8" fill="#2563EB"/>
<ellipse cx="265" cy="165.5" rx="73" ry="72.5" fill="url(#paint0_linear_55_1625)"/>
<rect width="6.68216" height="5.93154" rx="2.96577" transform="matrix(0.904989 0.425435 -0.627658 0.778489 289.435 -6.68784)" fill="url(#paint1_linear_55_1625)"/>
<rect width="6.68216" height="5.93154" rx="2.96577" transform="matrix(0.904989 0.425435 -0.627658 0.778489 313.624 4.6835)" fill="url(#paint2_linear_55_1625)"/>
<rect width="6.68216" height="5.93154" rx="2.96577" transform="matrix(0.904989 0.425435 -0.627658 0.778489 337.813 16.0549)" fill="url(#paint3_linear_55_1625)"/>
<rect width="6.68216" height="5.93154" rx="2.96577" transform="matrix(0.904989 0.425435 -0.627658 0.778489 274.543 11.7827)" fill="url(#paint4_linear_55_1625)"/>
<rect width="6.68216" height="5.93154" rx="2.96577" transform="matrix(0.904989 0.425435 -0.627658 0.778489 298.732 23.154)" fill="url(#paint5_linear_55_1625)"/>
<rect width="6.68216" height="5.93154" rx="2.96577" transform="matrix(0.904989 0.425435 -0.627658 0.778489 322.921 34.5254)" fill="url(#paint6_linear_55_1625)"/>
<rect width="6.68216" height="5.93154" rx="2.96577" transform="matrix(0.904989 0.425435 -0.627658 0.778489 347.11 45.8966)" fill="url(#paint7_linear_55_1625)"/>
<rect width="6.68216" height="5.93154" rx="2.96577" transform="matrix(0.904989 0.425435 -0.627658 0.778489 259.651 30.2532)" fill="url(#paint8_linear_55_1625)"/>
<rect width="6.68216" height="5.93154" rx="2.96577" transform="matrix(0.904989 0.425435 -0.627658 0.778489 283.84 41.6245)" fill="url(#paint9_linear_55_1625)"/>
<rect width="6.68216" height="5.93154" rx="2.96577" transform="matrix(0.904989 0.425435 -0.627658 0.778489 308.03 52.9959)" fill="url(#paint10_linear_55_1625)"/>
<rect width="6.68216" height="5.93154" rx="2.96577" transform="matrix(0.904989 0.425435 -0.627658 0.778489 332.218 64.3671)" fill="url(#paint11_linear_55_1625)"/>
<rect width="6.68216" height="5.93154" rx="2.96577" transform="matrix(0.904989 0.425435 -0.627658 0.778489 356.407 75.7385)" fill="url(#paint12_linear_55_1625)"/>
<rect width="6.68216" height="5.93154" rx="2.96577" transform="matrix(0.904989 0.425435 -0.627658 0.778489 244.759 48.7237)" fill="url(#paint13_linear_55_1625)"/>
<rect width="6.68216" height="5.93154" rx="2.96577" transform="matrix(0.904989 0.425435 -0.627658 0.778489 268.948 60.095)" fill="url(#paint14_linear_55_1625)"/>
<rect width="6.68216" height="5.93154" rx="2.96577" transform="matrix(0.904989 0.425435 -0.627658 0.778489 293.138 71.4664)" fill="url(#paint15_linear_55_1625)"/>
<rect width="6.68216" height="5.93154" rx="2.96577" transform="matrix(0.904989 0.425435 -0.627658 0.778489 317.326 82.8376)" fill="url(#paint16_linear_55_1625)"/>
<rect width="6.68216" height="5.93154" rx="2.96577" transform="matrix(0.904989 0.425435 -0.627658 0.778489 341.516 94.209)" fill="url(#paint17_linear_55_1625)"/>
<rect width="6.68216" height="5.93154" rx="2.96577" transform="matrix(0.904989 0.425435 -0.627658 0.778489 229.867 67.1946)" fill="url(#paint18_linear_55_1625)"/>
<rect width="6.68216" height="5.93154" rx="2.96577" transform="matrix(0.904989 0.425435 -0.627658 0.778489 254.056 78.5659)" fill="url(#paint19_linear_55_1625)"/>
<rect width="6.68216" height="5.93154" rx="2.96577" transform="matrix(0.904989 0.425435 -0.627658 0.778489 278.245 89.9373)" fill="url(#paint20_linear_55_1625)"/>
<rect width="6.68216" height="5.93154" rx="2.96577" transform="matrix(0.904989 0.425435 -0.627658 0.778489 302.434 101.309)" fill="url(#paint21_linear_55_1625)"/>
<rect width="6.68216" height="5.93154" rx="2.96577" transform="matrix(0.904989 0.425435 -0.627658 0.778489 326.624 112.68)" fill="url(#paint22_linear_55_1625)"/>
<rect width="6.68216" height="5.93154" rx="2.96577" transform="matrix(0.904989 0.425435 -0.627658 0.778489 350.813 124.051)" fill="url(#paint23_linear_55_1625)"/>
<rect width="6.68216" height="5.93154" rx="2.96577" transform="matrix(0.904989 0.425435 -0.627658 0.778489 214.975 85.6651)" fill="url(#paint24_linear_55_1625)"/>
<rect width="6.68216" height="5.93154" rx="2.96577" transform="matrix(0.904989 0.425435 -0.627658 0.778489 239.164 97.0364)" fill="url(#paint25_linear_55_1625)"/>
<rect width="6.68216" height="5.93154" rx="2.96577" transform="matrix(0.904989 0.425435 -0.627658 0.778489 263.354 108.408)" fill="url(#paint26_linear_55_1625)"/>
<rect width="6.68216" height="5.93154" rx="2.96577" transform="matrix(0.904989 0.425435 -0.627658 0.778489 287.542 119.779)" fill="url(#paint27_linear_55_1625)"/>
<rect width="6.68216" height="5.93154" rx="2.96577" transform="matrix(0.904989 0.425435 -0.627658 0.778489 311.732 131.15)" fill="url(#paint28_linear_55_1625)"/>
<rect width="6.68216" height="5.93154" rx="2.96577" transform="matrix(0.904989 0.425435 -0.627658 0.778489 335.921 142.522)" fill="url(#paint29_linear_55_1625)"/>
<rect width="6.68216" height="5.93154" rx="2.96577" transform="matrix(0.904989 0.425435 -0.627658 0.778489 360.11 153.893)" fill="url(#paint30_linear_55_1625)"/>
<rect width="6.68216" height="5.93154" rx="2.96577" transform="matrix(0.904989 0.425435 -0.627658 0.778489 200.083 104.136)" fill="url(#paint31_linear_55_1625)"/>
<rect width="6.68216" height="5.93154" rx="2.96577" transform="matrix(0.904989 0.425435 -0.627658 0.778489 185.72 121.95)" fill="url(#paint32_linear_55_1625)"/>
<rect width="6.68216" height="5.93154" rx="2.96577" transform="matrix(0.904989 0.425435 -0.627658 0.778489 171.358 139.764)" fill="url(#paint33_linear_55_1625)"/>
<rect width="6.68216" height="5.93154" rx="2.96577" transform="matrix(0.904989 0.425435 -0.627658 0.778489 156.995 157.578)" fill="url(#paint34_linear_55_1625)"/>
<rect width="6.68216" height="5.93154" rx="2.96577" transform="matrix(0.904989 0.425435 -0.627658 0.778489 224.272 115.507)" fill="url(#paint35_linear_55_1625)"/>
<rect width="6.68216" height="5.93154" rx="2.96577" transform="matrix(0.904989 0.425435 -0.627658 0.778489 209.91 133.321)" fill="url(#paint36_linear_55_1625)"/>
<rect width="6.68216" height="5.93154" rx="2.96577" transform="matrix(0.904989 0.425435 -0.627658 0.778489 195.547 151.135)" fill="url(#paint37_linear_55_1625)"/>
<rect width="6.68216" height="5.93154" rx="2.96577" transform="matrix(0.904989 0.425435 -0.627658 0.778489 248.462 126.878)" fill="url(#paint38_linear_55_1625)"/>
<rect width="6.68216" height="5.93154" rx="2.96577" transform="matrix(0.904989 0.425435 -0.627658 0.778489 234.099 144.693)" fill="url(#paint39_linear_55_1625)"/>
<rect width="6.68216" height="5.93154" rx="2.96577" transform="matrix(0.904989 0.425435 -0.627658 0.778489 272.65 138.25)" fill="url(#paint40_linear_55_1625)"/>
<rect width="6.68216" height="5.93154" rx="2.96577" transform="matrix(0.904989 0.425435 -0.627658 0.778489 258.288 156.064)" fill="url(#paint41_linear_55_1625)"/>
<rect width="6.68216" height="5.93154" rx="2.96577" transform="matrix(0.904989 0.425435 -0.627658 0.778489 296.84 149.621)" fill="url(#paint42_linear_55_1625)"/>
</g>
<defs>
<linearGradient id="paint0_linear_55_1625" x1="256.331" y1="130.5" x2="274.784" y2="164.658" gradientUnits="userSpaceOnUse">
<stop stop-color="#5275EC"/>
<stop offset="1" stop-color="#5275EC" stop-opacity="0"/>
</linearGradient>
<linearGradient id="paint1_linear_55_1625" x1="-1.14957" y1="0.797039" x2="2.76061" y2="6.34095" gradientUnits="userSpaceOnUse">
<stop stop-color="#5275EC"/>
<stop offset="1" stop-color="#5275EC" stop-opacity="0"/>
</linearGradient>
<linearGradient id="paint2_linear_55_1625" x1="-1.14957" y1="0.797039" x2="2.76061" y2="6.34095" gradientUnits="userSpaceOnUse">
<stop stop-color="#5275EC"/>
<stop offset="1" stop-color="#5275EC" stop-opacity="0"/>
</linearGradient>
<linearGradient id="paint3_linear_55_1625" x1="-1.14957" y1="0.797039" x2="2.76061" y2="6.34095" gradientUnits="userSpaceOnUse">
<stop stop-color="#5275EC"/>
<stop offset="1" stop-color="#5275EC" stop-opacity="0"/>
</linearGradient>
<linearGradient id="paint4_linear_55_1625" x1="-1.14957" y1="0.797039" x2="2.76061" y2="6.34095" gradientUnits="userSpaceOnUse">
<stop stop-color="#5275EC"/>
<stop offset="1" stop-color="#5275EC" stop-opacity="0"/>
</linearGradient>
<linearGradient id="paint5_linear_55_1625" x1="-1.14957" y1="0.797039" x2="2.76061" y2="6.34095" gradientUnits="userSpaceOnUse">
<stop stop-color="#5275EC"/>
<stop offset="1" stop-color="#5275EC" stop-opacity="0"/>
</linearGradient>
<linearGradient id="paint6_linear_55_1625" x1="-1.14957" y1="0.797039" x2="2.76061" y2="6.34095" gradientUnits="userSpaceOnUse">
<stop stop-color="#5275EC"/>
<stop offset="1" stop-color="#5275EC" stop-opacity="0"/>
</linearGradient>
<linearGradient id="paint7_linear_55_1625" x1="-1.14957" y1="0.797039" x2="2.76061" y2="6.34095" gradientUnits="userSpaceOnUse">
<stop stop-color="#5275EC"/>
<stop offset="1" stop-color="#5275EC" stop-opacity="0"/>
</linearGradient>
<linearGradient id="paint8_linear_55_1625" x1="-1.14957" y1="0.797039" x2="2.76061" y2="6.34095" gradientUnits="userSpaceOnUse">
<stop stop-color="#5275EC"/>
<stop offset="1" stop-color="#5275EC" stop-opacity="0"/>
</linearGradient>
<linearGradient id="paint9_linear_55_1625" x1="-1.14957" y1="0.797039" x2="2.76061" y2="6.34095" gradientUnits="userSpaceOnUse">
<stop stop-color="#5275EC"/>
<stop offset="1" stop-color="#5275EC" stop-opacity="0"/>
</linearGradient>
<linearGradient id="paint10_linear_55_1625" x1="-1.14957" y1="0.797039" x2="2.76061" y2="6.34095" gradientUnits="userSpaceOnUse">
<stop stop-color="#5275EC"/>
<stop offset="1" stop-color="#5275EC" stop-opacity="0"/>
</linearGradient>
<linearGradient id="paint11_linear_55_1625" x1="-1.14957" y1="0.797039" x2="2.76061" y2="6.34095" gradientUnits="userSpaceOnUse">
<stop stop-color="#5275EC"/>
<stop offset="1" stop-color="#5275EC" stop-opacity="0"/>
</linearGradient>
<linearGradient id="paint12_linear_55_1625" x1="-1.14957" y1="0.797039" x2="2.76061" y2="6.34095" gradientUnits="userSpaceOnUse">
<stop stop-color="#5275EC"/>
<stop offset="1" stop-color="#5275EC" stop-opacity="0"/>
</linearGradient>
<linearGradient id="paint13_linear_55_1625" x1="-1.14957" y1="0.797039" x2="2.76061" y2="6.34095" gradientUnits="userSpaceOnUse">
<stop stop-color="#5275EC"/>
<stop offset="1" stop-color="#5275EC" stop-opacity="0"/>
</linearGradient>
<linearGradient id="paint14_linear_55_1625" x1="-1.14957" y1="0.797039" x2="2.76061" y2="6.34095" gradientUnits="userSpaceOnUse">
<stop stop-color="#5275EC"/>
<stop offset="1" stop-color="#5275EC" stop-opacity="0"/>
</linearGradient>
<linearGradient id="paint15_linear_55_1625" x1="-1.14957" y1="0.797039" x2="2.76061" y2="6.34095" gradientUnits="userSpaceOnUse">
<stop stop-color="#5275EC"/>
<stop offset="1" stop-color="#5275EC" stop-opacity="0"/>
</linearGradient>
<linearGradient id="paint16_linear_55_1625" x1="-1.14957" y1="0.797039" x2="2.76061" y2="6.34095" gradientUnits="userSpaceOnUse">
<stop stop-color="#5275EC"/>
<stop offset="1" stop-color="#5275EC" stop-opacity="0"/>
</linearGradient>
<linearGradient id="paint17_linear_55_1625" x1="-1.14957" y1="0.797039" x2="2.76061" y2="6.34095" gradientUnits="userSpaceOnUse">
<stop stop-color="#5275EC"/>
<stop offset="1" stop-color="#5275EC" stop-opacity="0"/>
</linearGradient>
<linearGradient id="paint18_linear_55_1625" x1="-1.14957" y1="0.797039" x2="2.76061" y2="6.34095" gradientUnits="userSpaceOnUse">
<stop stop-color="#5275EC"/>
<stop offset="1" stop-color="#5275EC" stop-opacity="0"/>
</linearGradient>
<linearGradient id="paint19_linear_55_1625" x1="-1.14957" y1="0.797039" x2="2.76061" y2="6.34095" gradientUnits="userSpaceOnUse">
<stop stop-color="#5275EC"/>
<stop offset="1" stop-color="#5275EC" stop-opacity="0"/>
</linearGradient>
<linearGradient id="paint20_linear_55_1625" x1="-1.14957" y1="0.797039" x2="2.76061" y2="6.34095" gradientUnits="userSpaceOnUse">
<stop stop-color="#5275EC"/>
<stop offset="1" stop-color="#5275EC" stop-opacity="0"/>
</linearGradient>
<linearGradient id="paint21_linear_55_1625" x1="-1.14957" y1="0.797039" x2="2.76061" y2="6.34095" gradientUnits="userSpaceOnUse">
<stop stop-color="#5275EC"/>
<stop offset="1" stop-color="#5275EC" stop-opacity="0"/>
</linearGradient>
<linearGradient id="paint22_linear_55_1625" x1="-1.14957" y1="0.797039" x2="2.76061" y2="6.34095" gradientUnits="userSpaceOnUse">
<stop stop-color="#5275EC"/>
<stop offset="1" stop-color="#5275EC" stop-opacity="0"/>
</linearGradient>
<linearGradient id="paint23_linear_55_1625" x1="-1.14957" y1="0.797039" x2="2.76061" y2="6.34095" gradientUnits="userSpaceOnUse">
<stop stop-color="#5275EC"/>
<stop offset="1" stop-color="#5275EC" stop-opacity="0"/>
</linearGradient>
<linearGradient id="paint24_linear_55_1625" x1="-1.14957" y1="0.797039" x2="2.76061" y2="6.34095" gradientUnits="userSpaceOnUse">
<stop stop-color="#5275EC"/>
<stop offset="1" stop-color="#5275EC" stop-opacity="0"/>
</linearGradient>
<linearGradient id="paint25_linear_55_1625" x1="-1.14957" y1="0.797039" x2="2.76061" y2="6.34095" gradientUnits="userSpaceOnUse">
<stop stop-color="#5275EC"/>
<stop offset="1" stop-color="#5275EC" stop-opacity="0"/>
</linearGradient>
<linearGradient id="paint26_linear_55_1625" x1="-1.14957" y1="0.797039" x2="2.76061" y2="6.34095" gradientUnits="userSpaceOnUse">
<stop stop-color="#5275EC"/>
<stop offset="1" stop-color="#5275EC" stop-opacity="0"/>
</linearGradient>
<linearGradient id="paint27_linear_55_1625" x1="-1.14957" y1="0.797039" x2="2.76061" y2="6.34095" gradientUnits="userSpaceOnUse">
<stop stop-color="#5275EC"/>
<stop offset="1" stop-color="#5275EC" stop-opacity="0"/>
</linearGradient>
<linearGradient id="paint28_linear_55_1625" x1="-1.14957" y1="0.797039" x2="2.76061" y2="6.34095" gradientUnits="userSpaceOnUse">
<stop stop-color="#5275EC"/>
<stop offset="1" stop-color="#5275EC" stop-opacity="0"/>
</linearGradient>
<linearGradient id="paint29_linear_55_1625" x1="-1.14957" y1="0.797039" x2="2.76061" y2="6.34095" gradientUnits="userSpaceOnUse">
<stop stop-color="#5275EC"/>
<stop offset="1" stop-color="#5275EC" stop-opacity="0"/>
</linearGradient>
<linearGradient id="paint30_linear_55_1625" x1="-1.14957" y1="0.797039" x2="2.76061" y2="6.34095" gradientUnits="userSpaceOnUse">
<stop stop-color="#5275EC"/>
<stop offset="1" stop-color="#5275EC" stop-opacity="0"/>
</linearGradient>
<linearGradient id="paint31_linear_55_1625" x1="-1.14957" y1="0.797039" x2="2.76061" y2="6.34095" gradientUnits="userSpaceOnUse">
<stop stop-color="#5275EC"/>
<stop offset="1" stop-color="#5275EC" stop-opacity="0"/>
</linearGradient>
<linearGradient id="paint32_linear_55_1625" x1="-1.14957" y1="0.797039" x2="2.76061" y2="6.34095" gradientUnits="userSpaceOnUse">
<stop stop-color="#5275EC"/>
<stop offset="1" stop-color="#5275EC" stop-opacity="0"/>
</linearGradient>
<linearGradient id="paint33_linear_55_1625" x1="-1.14957" y1="0.797039" x2="2.76061" y2="6.34095" gradientUnits="userSpaceOnUse">
<stop stop-color="#5275EC"/>
<stop offset="1" stop-color="#5275EC" stop-opacity="0"/>
</linearGradient>
<linearGradient id="paint34_linear_55_1625" x1="-1.14957" y1="0.797039" x2="2.76061" y2="6.34095" gradientUnits="userSpaceOnUse">
<stop stop-color="#5275EC"/>
<stop offset="1" stop-color="#5275EC" stop-opacity="0"/>
</linearGradient>
<linearGradient id="paint35_linear_55_1625" x1="-1.14957" y1="0.797039" x2="2.76061" y2="6.34095" gradientUnits="userSpaceOnUse">
<stop stop-color="#5275EC"/>
<stop offset="1" stop-color="#5275EC" stop-opacity="0"/>
</linearGradient>
<linearGradient id="paint36_linear_55_1625" x1="-1.14957" y1="0.797039" x2="2.76061" y2="6.34095" gradientUnits="userSpaceOnUse">
<stop stop-color="#5275EC"/>
<stop offset="1" stop-color="#5275EC" stop-opacity="0"/>
</linearGradient>
<linearGradient id="paint37_linear_55_1625" x1="-1.14957" y1="0.797039" x2="2.76061" y2="6.34095" gradientUnits="userSpaceOnUse">
<stop stop-color="#5275EC"/>
<stop offset="1" stop-color="#5275EC" stop-opacity="0"/>
</linearGradient>
<linearGradient id="paint38_linear_55_1625" x1="-1.14957" y1="0.797039" x2="2.76061" y2="6.34095" gradientUnits="userSpaceOnUse">
<stop stop-color="#5275EC"/>
<stop offset="1" stop-color="#5275EC" stop-opacity="0"/>
</linearGradient>
<linearGradient id="paint39_linear_55_1625" x1="-1.14957" y1="0.797039" x2="2.76061" y2="6.34095" gradientUnits="userSpaceOnUse">
<stop stop-color="#5275EC"/>
<stop offset="1" stop-color="#5275EC" stop-opacity="0"/>
</linearGradient>
<linearGradient id="paint40_linear_55_1625" x1="-1.14957" y1="0.797039" x2="2.76061" y2="6.34095" gradientUnits="userSpaceOnUse">
<stop stop-color="#5275EC"/>
<stop offset="1" stop-color="#5275EC" stop-opacity="0"/>
</linearGradient>
<linearGradient id="paint41_linear_55_1625" x1="-1.14957" y1="0.797039" x2="2.76061" y2="6.34095" gradientUnits="userSpaceOnUse">
<stop stop-color="#5275EC"/>
<stop offset="1" stop-color="#5275EC" stop-opacity="0"/>
</linearGradient>
<linearGradient id="paint42_linear_55_1625" x1="-1.14957" y1="0.797039" x2="2.76061" y2="6.34095" gradientUnits="userSpaceOnUse">
<stop stop-color="#5275EC"/>
<stop offset="1" stop-color="#5275EC" stop-opacity="0"/>
</linearGradient>
<clipPath id="clip0_55_1625">
<rect width="358" height="158" rx="8" fill="white"/>
</clipPath>
</defs>
</svg>
