<svg width="40" height="40" viewBox="0 0 40 40" fill="none" xmlns="http://www.w3.org/2000/svg">
<path d="M0 4C0 1.79086 1.79086 0 4 0H36C38.2091 0 40 1.79086 40 4V36C40 38.2091 38.2091 40 36 40H4C1.79086 40 0 38.2091 0 36V4Z" fill="#F3F4F6"/>
<path d="M27.5 11.75H12.5C11.9033 11.75 11.331 11.9871 10.909 12.409C10.4871 12.831 10.25 13.4033 10.25 14V24.5C10.25 25.0967 10.4871 25.669 10.909 26.091C11.331 26.5129 11.9033 26.75 12.5 26.75H27.5C28.0967 26.75 28.669 26.5129 29.091 26.091C29.5129 25.669 29.75 25.0967 29.75 24.5V14C29.75 13.4033 29.5129 12.831 29.091 12.409C28.669 11.9871 28.0967 11.75 27.5 11.75ZM28.25 24.5C28.25 24.6989 28.171 24.8897 28.0303 25.0303C27.8897 25.171 27.6989 25.25 27.5 25.25H12.5C12.3011 25.25 12.1103 25.171 11.9697 25.0303C11.829 24.8897 11.75 24.6989 11.75 24.5V14C11.75 13.8011 11.829 13.6103 11.9697 13.4697C12.1103 13.329 12.3011 13.25 12.5 13.25H27.5C27.6989 13.25 27.8897 13.329 28.0303 13.4697C28.171 13.6103 28.25 13.8011 28.25 14V24.5ZM23.75 29C23.75 29.1989 23.671 29.3897 23.5303 29.5303C23.3897 29.671 23.1989 29.75 23 29.75H17C16.8011 29.75 16.6103 29.671 16.4697 29.5303C16.329 29.3897 16.25 29.1989 16.25 29C16.25 28.8011 16.329 28.6103 16.4697 28.4697C16.6103 28.329 16.8011 28.25 17 28.25H23C23.1989 28.25 23.3897 28.329 23.5303 28.4697C23.671 28.6103 23.75 28.8011 23.75 29ZM23.4163 18.6256L18.9163 15.6256C18.8033 15.5502 18.6719 15.507 18.5363 15.5004C18.4006 15.4938 18.2657 15.5242 18.146 15.5883C18.0263 15.6524 17.9262 15.7478 17.8564 15.8644C17.7867 15.9809 17.7499 16.1142 17.75 16.25V22.25C17.7499 22.3858 17.7867 22.5191 17.8564 22.6356C17.9262 22.7522 18.0263 22.8476 18.146 22.9117C18.2657 22.9758 18.4006 23.0062 18.5363 22.9996C18.6719 22.993 18.8033 22.9498 18.9163 22.8744L23.4163 19.8744C23.5191 19.8059 23.6035 19.7131 23.6618 19.6042C23.7202 19.4952 23.7507 19.3736 23.7507 19.25C23.7507 19.1264 23.7202 19.0048 23.6618 18.8958C23.6035 18.7869 23.5191 18.6941 23.4163 18.6256ZM19.25 20.8484V17.6562L21.6481 19.25L19.25 20.8484Z" fill="#D1D5DB"/>
</svg>
