<svg width="210" height="49" viewBox="0 0 210 49" fill="none" xmlns="http://www.w3.org/2000/svg">
<path d="M4.5296 19.9377H0L0.995516 15.0197H4.97758L6.04279 7.90819L13.5291 6.7869L12.2249 15.0197H19.3827L18.3872 19.9377H11.2493L9.52709 30.9738C9.48676 31.1523 9.45683 31.3329 9.43748 31.5147C9.42468 31.7539 9.42468 31.9936 9.43748 32.2328C9.37814 33.3078 9.58309 34.381 10.0348 35.3607C10.7872 36.6012 11.7821 37.6813 12.9616 38.5377H4.31058C3.55099 38.0953 2.92399 37.4614 2.4937 36.701C2.0634 35.9406 1.84526 35.0809 1.86161 34.2099C1.86462 33.8812 1.88457 33.5529 1.92135 33.2262C1.96386 32.8266 2.02698 32.4293 2.11049 32.0361L4.5296 19.9377Z" fill="white"/>
<path d="M20.3782 38.3607L24.3602 15.177H30.2238L29.4175 19.6426C30.6432 17.9996 32.2073 16.6319 34.0068 15.6295C35.6891 14.7495 37.5689 14.303 39.4722 14.3311H40.2984C40.4675 14.3206 40.6371 14.3206 40.8062 14.3311L39.6414 20.8131C39.4591 20.8007 39.2762 20.8007 39.0939 20.8131C38.2377 20.7541 37.6703 20.7246 37.3716 20.7246C34.9127 20.7246 32.2547 21.1377 30.8709 22.3475C29.4871 23.5574 29.288 25.6328 28.8002 28.1901L27.088 38.3311L20.3782 38.3607Z" fill="white"/>
<path d="M70.5323 15.2656L66.4407 38.3607L60.159 39.4524L60.3481 34.7213C58.6234 36.1357 56.7067 37.3044 54.6538 38.1934C52.9898 38.8721 51.2076 39.2229 49.4074 39.2262C47.3309 39.3474 45.2771 38.7452 43.6036 37.5246C42.9062 36.9508 42.3535 36.2247 41.9889 35.4036C41.6244 34.5825 41.458 33.689 41.503 32.7934C41.4892 32.5543 41.4892 32.3145 41.503 32.0754C41.503 31.8197 41.5926 31.4065 41.6922 30.836L44.8778 15.2656H51.7071L48.8599 29.4885C48.7837 29.8127 48.7272 30.1412 48.6907 30.4721C48.6557 30.7232 48.6358 30.9761 48.6309 31.2295C48.6055 31.6732 48.6818 32.1168 48.8542 32.5273C49.0266 32.9377 49.2906 33.3044 49.6265 33.6C50.4297 34.2047 51.4257 34.5048 52.4338 34.4459C54.4344 34.4205 56.3767 33.7774 57.9888 32.6065C58.7889 32.1162 59.4832 31.4745 60.0316 30.7183C60.58 29.9621 60.9717 29.1062 61.1844 28.2L63.7329 15.2361L70.5323 15.2656Z" fill="white"/>
<path d="M98.2674 20.8328C96.908 20.1106 95.4331 19.6248 93.907 19.3967C92.4981 19.148 91.067 19.0426 89.6363 19.082C88.4574 19.0571 87.2851 19.2623 86.1866 19.6859C85.0882 20.1096 84.0852 20.7433 83.2351 21.5508C82.3881 22.3274 81.717 23.2722 81.2658 24.3233C80.8145 25.3743 80.5934 26.5077 80.6169 27.6492C80.579 28.6111 80.7504 29.5699 81.1197 30.4607C81.4889 31.3516 82.0474 32.1538 82.7573 32.8131C84.3376 34.173 86.3882 34.8777 88.4815 34.7803C89.659 34.7566 90.8251 34.5474 91.9359 34.1606C93.845 33.501 95.7017 32.7021 97.4909 31.7705L95.8583 37.6721C94.6095 38.4067 93.2715 38.9818 91.8762 39.3836C90.1893 39.8182 88.4528 40.0364 86.7095 40.0328C83.2369 40.1521 79.8509 38.9477 77.2521 36.6689C76.0331 35.6074 75.0652 34.2942 74.4166 32.8223C73.7681 31.3503 73.4548 29.7556 73.499 28.1508C73.4722 26.2449 73.8713 24.3567 74.6681 22.6207C75.4648 20.8848 76.6395 19.344 78.1082 18.1082C81.1744 15.3836 86.58 13.8885 89.487 13.8C91.432 13.7325 93.3794 13.818 95.3107 14.0557C97.0011 14.3004 98.6332 14.8434 100.129 15.659L98.2674 20.8328Z" fill="white"/>
<path d="M102.548 38.3607L108.262 0.983607L115.311 0L111.577 23.7147L122.399 15.1082H130.92L116.923 25.1902L129.158 38.3705H120.577L110.781 27.7573L108.949 38.3705L102.548 38.3607Z" fill="white"/>
<path d="M133.548 38.3902L136.465 18H131.159L131.756 14.9508H137.102L138.446 8.06555C139.253 5.32129 141.702 3.23605 142.428 2.57704C144.126 1.44351 146.04 0.663695 148.053 0.285218C149.446 0.0221827 150.874 -0.00111805 152.274 0.216358L151.806 2.29178C150.538 2.23532 149.273 2.45745 148.103 2.9422C146.932 3.42695 145.885 4.16224 145.037 5.09507C144.18 5.9213 143.354 7.5639 142.757 10.4557L141.861 14.9311H149.407L148.81 17.9803H141.323L138.387 38.3705L133.548 38.3902Z" fill="white"/>
<path d="M149.626 38.4688L153.439 14.9803L158.685 13.6229L154.653 38.4688H149.626ZM153.718 6.23606C153.719 5.8209 153.816 5.41148 154 5.03846C154.185 4.66544 154.452 4.33847 154.783 4.08196C155.496 3.47617 156.411 3.15365 157.351 3.17703C158.267 3.15501 159.157 3.4706 159.85 4.06227C160.173 4.32526 160.433 4.65569 160.612 5.02982C160.791 5.40395 160.883 5.81252 160.883 6.22622C160.883 6.63991 160.791 7.04849 160.612 7.42261C160.433 7.79674 160.173 8.12717 159.85 8.39016C159.157 8.98183 158.267 9.29742 157.351 9.2754C156.425 9.28996 155.525 8.96794 154.823 8.37047C154.489 8.12761 154.216 7.81257 154.024 7.44945C153.833 7.08633 153.728 6.68473 153.718 6.27538V6.23606Z" fill="white"/>
<path d="M163.344 38.3902L169.317 1.01312L174.345 0.0295105L168.222 38.3311L163.344 38.3902Z" fill="white"/>
<path d="M199.71 36.3737C197.892 37.3598 195.986 38.1796 194.016 38.8229C192.428 39.2719 190.789 39.5263 189.138 39.5803C185.076 39.5803 181.841 38.6754 179.322 36.4721C176.804 34.2688 176.216 31.2885 176.525 27.7573C176.806 24.1688 178.324 20.7839 180.825 18.1672C182.816 16.2983 186.928 13.5639 191.278 13.5639C195.161 13.5639 198.207 14.5475 200.417 16.5147C202.627 18.4819 203.185 20.1344 203.185 23.5672C203.185 24.0393 203.185 24.1869 203.185 24.9147C203.185 25.0229 202.129 27 202.129 27L181.562 27.7869L181.313 28.5147C181.313 30.9246 181.403 32.5672 183.075 34.0328C184.932 35.5521 187.297 36.331 189.705 36.2164C191.647 36.2164 193.259 35.4295 194.952 34.8787C196.841 34.1556 198.612 33.1613 200.208 31.9279L199.71 36.3737ZM181.96 24.5705L198.685 24.0787V23.1738C198.685 21 198.476 19.918 197.072 18.6295C195.669 17.3409 193.817 17.2131 191.448 17.2131C189.326 17.1849 187.272 17.9469 185.694 19.3475C183.852 20.5955 182.527 22.4564 181.96 24.5902V24.5705Z" fill="white"/>
<path d="M200.04 40.3252V44.0826H199.244V40.3252H197.731V39.6465H201.544V40.3252H200.04Z" fill="white"/>
<path d="M201.762 44.0826L202.658 39.558H202.718L204.311 42.7941L205.914 39.558L206.82 44.1318H206.053L205.565 41.6236L204.301 44.2793H204.231L202.907 41.6236L202.419 44.1318L201.762 44.0826Z" fill="white"/>
<path d="M5 45.5C8.18333 45.525 11.3667 45.55 14.55 45.575C71.85 46.025 129.15 46.475 186.45 46.925C189.633 46.95 192.817 46.975 196 47C196 46 196 45 196 44C192.817 44.025 189.633 44.05 186.45 44.075C129.15 44.525 71.85 44.975 14.55 45.425C11.3667 45.45 8.18333 45.475 5 45.5Z" fill="white"/>
</svg>
